#!OML:ASF X:\für Bonn\!DataBase\2005_08_11_Bastian_Final\c3d\Bastian.ASF
:FULLY-SPECIFIED
:DEGREES
32
root -3.4069 16.6073 -20.7397 167.473 -29.9047 -181.908
lowerback 15.8273 -2.43529 -7.09657
upperback 9.59318 -5.46836 -1.73274
thorax 1.84078 -3.56862 2.86745
lowerneck 0.0445449 -9.32452 -5.39827
upperneck -6.89 -12.4444 15.2154
head -0.692303 -6.6562 5.37723
rclavicle -1.86858e-014 -1.35174e-014
rhumerus -27.8035 24.3309 -93.7082
rradius 125.083
rwrist 13.0983
rhand -30.0745 15.1092
rfingers 7.12502
rthumb -3.38943 -14.8436
lclavicle -1.86858e-014 -1.35174e-014
lhumerus -3.10217 -59.3323 97.0298
lradius 110.422
lwrist 41.7833
lhand -16.6315 -23.6898
lfingers 7.12502
lthumb 9.59094 6.07191
rfemur -29.1362 -2.44198 6.29193
rtibia 54.249
rfoot -196.88 -184.932
rtoes -2.25328
lfemur 17.8355 -7.85281 -12.53
ltibia 24.7965
lfoot -22.8976 -14.2963
ltoes -28.3375
33
root -3.39655 16.5775 -20.9083 167.526 -30.4479 -182.007
lowerback 15.1816 -2.33021 -7.10767
upperback 9.62719 -5.24626 -1.77503
thorax 2.19159 -3.45717 2.74873
lowerneck 0.753894 -9.35918 -5.79483
upperneck -7.01073 -12.493 15.7781
head -0.772812 -6.71383 5.64656
rclavicle -6.16232e-015 0
rhumerus -26.9634 24.2564 -93.4904
rradius 124.955
rwrist 12.888
rhand -29.8684 14.9747
rfingers 7.12502
rthumb -3.1904 -14.9812
lclavicle -6.16232e-015 0
lhumerus -2.5622 -59.1948 97.1256
lradius 110.3
lwrist 41.7804
lhand -16.583 -23.7953
lfingers 7.12502
lthumb 9.63773 5.96426
rfemur -28.6877 -1.27741 5.67215
rtibia 52.7355
rfoot -196.82 -185.771
rtoes -3.15176
lfemur 18.5585 -8.2743 -12.3885
ltibia 24.0845
lfoot -22.8068 -14.4484
ltoes -28.8358
34
root -3.38355 16.5433 -21.075 167.521 -30.8041 -182.072
lowerback 14.6169 -2.17459 -7.05958
upperback 9.64183 -4.95959 -1.82504
thorax 2.46778 -3.30808 2.59448
lowerneck 1.43232 -9.38721 -6.18091
upperneck -7.04806 -12.544 16.3061
head -0.826683 -6.76911 5.90076
rclavicle -1.51076e-014 7.95139e-016
rhumerus -26.0663 24.1656 -93.2608
rradius 124.838
rwrist 12.6582
rhand -29.7634 14.8463
rfingers 7.12502
rthumb -3.08899 -15.1111
lclavicle -1.51076e-014 7.95139e-016
lhumerus -2.05822 -59.056 97.1769
lradius 110.199
lwrist 41.6991
lhand -16.6476 -23.8914
lfingers 7.12502
lthumb 9.57534 5.87102
rfemur -28.3193 -0.0701881 5.16791
rtibia 51.3901
rfoot -196.817 -186.72
rtoes -3.96429
lfemur 19.2362 -8.69122 -12.2607
ltibia 23.6873
lfoot -22.9388 -14.3725
ltoes -29.6701
35
root -3.36825 16.5063 -21.241 167.487 -31.0635 -182.129
lowerback 14.0928 -1.98319 -6.98332
upperback 9.64925 -4.62774 -1.86702
thorax 2.71088 -3.13436 2.43637
lowerneck 2.11616 -9.4105 -6.65052
upperneck -7.08811 -12.597 16.877
head -0.873092 -6.82698 6.18264
rclavicle 7.49418e-014 -5.80451e-014
rhumerus -25.0773 24.0485 -93.0222
rradius 124.731
rwrist 12.5272
rhand -29.6855 14.6596
rfingers 7.12502
rthumb -3.01373 -15.2988
lclavicle 7.49418e-014 -5.80451e-014
lhumerus -1.61681 -58.9302 97.2617
lradius 110.139
lwrist 41.6015
lhand -16.6853 -23.8861
lfingers 7.12502
lthumb 9.53896 5.87798
rfemur -27.9758 1.09861 4.73926
rtibia 50.1118
rfoot -196.643 -187.813
rtoes -4.80826
lfemur 19.9024 -9.13821 -12.1656
ltibia 23.4448
lfoot -23.1631 -14.1102
ltoes -30.8292
36
root -3.35064 16.4328 -21.4054 167.401 -31.2515 -182.085
lowerback 13.6395 -1.80003 -6.806
upperback 9.6218 -4.30006 -1.89042
thorax 2.87477 -2.95316 2.25377
lowerneck 2.73592 -9.42463 -7.11712
upperneck -7.03491 -12.6513 17.3969
head -0.885283 -6.87919 6.44312
rclavicle -4.25399e-014 -5.48646e-014
rhumerus -24.0843 23.9356 -92.8225
rradius 124.666
rwrist 12.4599
rhand -29.694 14.4609
rfingers 7.12502
rthumb -3.02191 -15.4974
lclavicle -4.25399e-014 -5.48646e-014
lhumerus -1.16807 -58.7909 97.2524
lradius 110.125
lwrist 41.6025
lhand -16.7899 -23.785
lfingers 7.12502
lthumb 9.43804 5.98369
rfemur -27.8149 1.97199 4.44633
rtibia 49.0157
rfoot -196.066 -188.737
rtoes -5.36701
lfemur 20.4679 -9.66252 -11.9807
ltibia 23.5095
lfoot -23.5469 -13.8013
ltoes -31.8415
37
root -3.33062 16.3973 -21.5672 167.288 -31.4293 -182.052
lowerback 13.2865 -1.61165 -6.61428
upperback 9.5891 -3.97775 -1.92361
thorax 2.98115 -2.77327 2.06338
lowerneck 3.30342 -9.43347 -7.51087
upperneck -6.9551 -12.7035 17.8409
head -0.89157 -6.92814 6.66716
rclavicle -4.91992e-014 -1.51076e-014
rhumerus -22.9549 23.8378 -92.5702
rradius 124.511
rwrist 12.5756
rhand -29.8639 14.3151
rfingers 7.12502
rthumb -3.186 -15.6408
lclavicle -4.91992e-014 -1.51076e-014
lhumerus -0.671909 -58.6444 97.1158
lradius 110.157
lwrist 41.6615
lhand -16.8556 -23.618
lfingers 7.12502
lthumb 9.37471 6.15357
rfemur -27.5022 2.49112 4.25453
rtibia 47.9409
rfoot -195.152 -189.329
rtoes -5.54398
lfemur 20.9493 -10.1793 -11.8497
ltibia 23.7558
lfoot -23.9423 -13.3977
ltoes -33.1067
38
root -3.30896 16.3673 -21.7309 167.201 -31.5696 -182.036
lowerback 12.9747 -1.42656 -6.41523
upperback 9.52504 -3.66208 -1.9661
thorax 3.03451 -2.59257 1.86622
lowerneck 3.6897 -9.45801 -7.84241
upperneck -6.70947 -12.7904 18.1708
head -0.827506 -6.97883 6.82898
rclavicle 2.88238e-015 5.56597e-015
rhumerus -21.7779 23.8275 -92.2541
rradius 124.298
rwrist 12.8043
rhand -30.1533 14.1528
rfingers 7.12502
rthumb -3.46547 -15.7988
lclavicle 2.88238e-015 5.56597e-015
lhumerus -0.196188 -58.4617 96.9541
lradius 110.219
lwrist 41.7907
lhand -16.87 -23.4012
lfingers 7.12502
lthumb 9.36077 6.37099
rfemur -27.2418 2.73182 4.16151
rtibia 47.054
rfoot -194.078 -189.599
rtoes -5.44915
lfemur 21.2496 -10.6044 -11.7094
ltibia 24.2219
lfoot -24.2531 -12.9095
ltoes -34.7417
39
root -3.28524 16.3392 -21.9 167.043 -31.7004 -181.975
lowerback 12.7067 -1.24681 -6.22785
upperback 9.47186 -3.36224 -1.97871
thorax 3.08336 -2.42291 1.71148
lowerneck 3.82868 -9.49165 -8.20297
upperneck -6.29518 -12.9056 18.4563
head -0.670447 -7.02585 6.95889
rclavicle 3.74709e-014 -1.19271e-014
rhumerus -20.5412 23.9103 -91.883
rradius 124.06
rwrist 13.1537
rhand -30.5239 13.9296
rfingers 7.12502
rthumb -3.82338 -16.0159
lclavicle 3.74709e-014 -1.19271e-014
lhumerus 0.264195 -58.1978 96.7921
lradius 110.299
lwrist 41.9568
lhand -16.7935 -23.1433
lfingers 7.12502
lthumb 9.43458 6.62556
rfemur -26.9182 2.79317 4.25481
rtibia 46.3156
rfoot -192.767 -189.744
rtoes -7.25512
lfemur 21.6351 -11.0422 -11.5156
ltibia 24.6471
lfoot -24.2358 -12.4643
ltoes -36.1663
40
root -3.25963 16.3111 -22.0728 166.869 -31.7891 -181.902
lowerback 12.4292 -1.06212 -6.04304
upperback 9.43229 -3.05894 -2.00907
thorax 3.15349 -2.25327 1.53954
lowerneck 3.78212 -9.52436 -8.43672
upperneck -5.76855 -13.0245 18.651
head -0.464606 -7.06424 7.02585
rclavicle 1.93815e-014 -1.90833e-014
rhumerus -19.2596 24.0052 -91.5495
rradius 123.809
rwrist 13.623
rhand -30.877 13.75
rfingers 7.12502
rthumb -4.16434 -16.189
lclavicle 1.93815e-014 -1.90833e-014
lhumerus 0.777734 -57.9133 96.5087
lradius 110.399
lwrist 42.1723
lhand -16.6879 -22.8387
lfingers 7.12502
lthumb 9.53648 6.92551
rfemur -26.6162 2.70178 4.48852
rtibia 45.8607
rfoot -191.377 -189.721
rtoes -11.2102
lfemur 21.9139 -11.4209 -11.2745
ltibia 25.2957
lfoot -23.9799 -12.1003
ltoes -37.2884
41
root -3.23211 16.2858 -22.2483 166.65 -31.8869 -181.788
lowerback 12.1597 -0.893735 -5.90301
upperback 9.40624 -2.78403 -1.97779
thorax 3.24458 -2.10326 1.46031
lowerneck 3.69547 -9.56134 -8.73594
upperneck -5.21544 -13.1517 18.7958
head -0.242157 -7.09962 7.08412
rclavicle 2.54444e-014 -6.36111e-014
rhumerus -17.9951 24.1839 -91.1267
rradius 123.595
rwrist 14.1013
rhand -31.1929 13.5587
rfingers 7.12502
rthumb -4.46944 -16.3741
lclavicle 2.54444e-014 -6.36111e-014
lhumerus 1.39498 -57.5826 96.1874
lradius 110.527
lwrist 42.4101
lhand -16.5731 -22.5519
lfingers 7.12502
lthumb 9.64724 7.20717
rfemur -26.3298 2.43278 4.83013
rtibia 45.6929
rfoot -190.071 -189.458
rtoes -14.8985
lfemur 22.0524 -11.7872 -10.9764
ltibia 26.2031
lfoot -23.5821 -11.7682
ltoes -38.1923
